<svg width="300" height="300" viewBox="0 0 300 300" fill="none" xmlns="http://www.w3.org/2000/svg">
<rect width="300" height="300" rx="50" fill="url(#paint0_linear_77_31)"/>
<g filter="url(#filter0_d_77_31)">
<path d="M268.69 51.8567C174.833 -2.21667 71.4418 29.3261 31.4784 51.8567C23.7711 193.029 111.12 270.033 154.794 288C251.563 228.109 276.397 132.282 268.69 51.8567Z" fill="url(#paint1_linear_77_31)"/>
</g>
<g style="mix-blend-mode:hard-light" filter="url(#filter1_d_77_31)">
<ellipse cx="150" cy="59.5" rx="84" ry="27.5" fill="#D9D9D9" fill-opacity="0.05" shape-rendering="crispEdges"/>
</g>
<g filter="url(#filter2_d_77_31)">
<path d="M130.09 186.973L122.746 210H115.949L126.477 181.562H130.773L130.09 186.973ZM136.184 210L128.82 186.973L128.059 181.562H132.414L142.98 210H136.184ZM135.871 199.414V204.336H121.047V199.414H135.871ZM151.457 188.867V210H145.344V188.867H151.457ZM144.973 183.398C144.973 182.513 145.285 181.79 145.91 181.23C146.535 180.658 147.355 180.371 148.371 180.371C149.387 180.371 150.207 180.658 150.832 181.23C151.47 181.79 151.789 182.513 151.789 183.398C151.789 184.271 151.47 184.993 150.832 185.566C150.207 186.126 149.387 186.406 148.371 186.406C147.355 186.406 146.535 186.126 145.91 185.566C145.285 184.993 144.973 184.271 144.973 183.398ZM161.965 193.789V210H155.871V188.867H161.594L161.965 193.789ZM168.273 188.711L168.176 194.395C167.915 194.355 167.577 194.323 167.16 194.297C166.743 194.258 166.385 194.238 166.086 194.238C165.305 194.238 164.628 194.336 164.055 194.531C163.495 194.714 163.026 194.987 162.648 195.352C162.284 195.716 162.01 196.172 161.828 196.719C161.646 197.253 161.555 197.871 161.555 198.574L160.402 198.008C160.402 196.615 160.539 195.339 160.812 194.18C161.086 193.021 161.483 192.018 162.004 191.172C162.525 190.312 163.163 189.648 163.918 189.18C164.673 188.711 165.533 188.477 166.496 188.477C166.809 188.477 167.128 188.496 167.453 188.535C167.779 188.574 168.052 188.633 168.273 188.711ZM180.344 210.391C178.664 210.391 177.16 210.124 175.832 209.59C174.504 209.056 173.378 208.32 172.453 207.383C171.542 206.432 170.845 205.339 170.363 204.102C169.882 202.865 169.641 201.543 169.641 200.137V199.395C169.641 197.819 169.862 196.367 170.305 195.039C170.747 193.711 171.392 192.559 172.238 191.582C173.098 190.592 174.152 189.831 175.402 189.297C176.652 188.75 178.078 188.477 179.68 188.477C181.177 188.477 182.512 188.724 183.684 189.219C184.855 189.701 185.845 190.397 186.652 191.309C187.46 192.207 188.072 193.294 188.488 194.57C188.918 195.833 189.133 197.253 189.133 198.828V201.328H172.102V197.402H183.156V196.934C183.156 196.191 183.02 195.54 182.746 194.98C182.486 194.421 182.095 193.991 181.574 193.691C181.066 193.379 180.422 193.223 179.641 193.223C178.898 193.223 178.28 193.379 177.785 193.691C177.29 194.004 176.893 194.447 176.594 195.02C176.307 195.579 176.099 196.237 175.969 196.992C175.839 197.734 175.773 198.535 175.773 199.395V200.137C175.773 200.957 175.884 201.706 176.105 202.383C176.327 203.06 176.652 203.639 177.082 204.121C177.512 204.603 178.033 204.98 178.645 205.254C179.257 205.527 179.953 205.664 180.734 205.664C181.698 205.664 182.616 205.482 183.488 205.117C184.361 204.74 185.116 204.154 185.754 203.359L188.605 206.621C188.176 207.246 187.57 207.852 186.789 208.438C186.021 209.01 185.096 209.479 184.016 209.844C182.935 210.208 181.711 210.391 180.344 210.391Z" fill="white"/>
</g>
<g filter="url(#filter3_d_77_31)">
<path d="M117.735 66.5C117.735 72.5751 112.811 77.5 106.735 77.5C100.66 77.5 95.7354 72.5751 95.7354 66.5C95.7354 60.4249 100.66 55.5 106.735 55.5C112.811 55.5 117.735 60.4249 117.735 66.5Z" fill="url(#paint2_linear_77_31)"/>
</g>
<g filter="url(#filter4_d_77_31)">
<path d="M68 234C68 243.389 60.3888 251 51 251C41.6112 251 34 243.389 34 234C34 224.611 41.6112 217 51 217C60.3888 217 68 224.611 68 234Z" fill="url(#paint3_linear_77_31)"/>
</g>
<g filter="url(#filter5_d_77_31)">
<path d="M135 241C135 247.075 130.075 252 124 252C117.925 252 113 247.075 113 241C113 234.925 117.925 230 124 230C130.075 230 135 234.925 135 241Z" fill="url(#paint4_linear_77_31)"/>
</g>
<g filter="url(#filter6_d_77_31)">
<path d="M285 149.5C285 157.508 278.508 164 270.5 164C262.492 164 256 157.508 256 149.5C256 141.492 262.492 135 270.5 135C278.508 135 285 141.492 285 149.5Z" fill="url(#paint5_linear_77_31)"/>
</g>
<g filter="url(#filter7_d_77_31)">
<path d="M206 33.5C206 36.5376 203.538 39 200.5 39C197.462 39 195 36.5376 195 33.5C195 30.4624 197.462 28 200.5 28C203.538 28 206 30.4624 206 33.5Z" fill="url(#paint6_linear_77_31)"/>
</g>
<path d="M70.0054 191.527L28.7033 161.889L36.2543 168.633C34.2242 170.054 30.9963 172.148 30.5605 174.341C31.2949 172.481 35.7459 171.192 37.8795 170.78L51.7064 181.507C48.3904 183.28 40.3474 187.731 36.1038 188.894C39.5283 189.614 49.747 185.846 54.4282 183.872L69.966 195.167C65.7582 196.838 54.7137 201.939 45.8086 199.713C32.6505 196.425 22.3688 169.674 18.8734 156.288C28.888 157.518 50.7603 161.029 58.1328 165.23C65.5052 169.431 69.1197 184.512 70.0054 191.527Z" fill="url(#paint7_linear_77_31)"/>
<path d="M227.055 62.9076L270.528 36.5578L262.477 42.6968C264.391 44.2702 267.447 46.6082 267.712 48.8285C267.124 46.9169 262.786 45.2872 260.691 44.7113L246.075 54.3351C249.244 56.3594 256.918 61.4197 261.058 62.9078C257.588 63.361 247.692 58.8127 243.178 56.4819L226.812 66.5396C230.878 68.532 241.494 74.4726 250.545 72.9435C263.918 70.684 276.241 44.8094 280.762 31.7349C270.683 32.1857 248.604 33.9918 240.928 37.609C233.253 41.2262 228.481 55.9819 227.055 62.9076Z" fill="url(#paint8_linear_77_31)"/>
<path d="M36.2688 108.767C54.2972 115.935 74.0027 115.233 85.3229 114.67C82.3881 107.502 61.844 85.1537 59.7477 83.0453H25.7871C37.1073 80.5153 49.266 78.407 56.3936 78.407C47.3094 67.303 28.722 43.6615 27.0449 37.9268C30.7344 42.3121 68.5523 84.1698 87 104.55V72.5036C87 59.8535 83.8241 52.6852 76.5184 45.5168C59.3284 28.6501 25.3678 26.5417 12.3706 16C10.6935 48.4685 14.0476 92.322 36.2688 108.767Z" fill="url(#paint9_linear_77_31)"/>
<path d="M94.1997 268.373C100.321 266.242 105.167 261.767 107.916 259.157C105.623 257.996 95.5837 256.862 94.5965 256.789L85.9835 264.196C88.3078 261.092 90.9359 257.91 92.7436 256.355C88.0404 255.547 78.2179 253.661 76.5535 252.586C78.4368 252.883 97.0724 255.151 106.155 256.249L99.2303 248.197C96.497 245.018 94.1426 243.91 90.7408 243.702C82.7367 243.214 73.6681 250.091 68.094 250.277C74.6843 258.801 85.0106 269.088 94.1997 268.373Z" fill="url(#paint10_linear_77_31)"/>
<path d="M252.167 251.679C236.804 253.982 221.276 250.288 212.379 248.051C215.769 243.31 235.376 230.37 237.351 229.175L264.291 234.659C255.686 230.991 246.353 227.493 240.699 226.342C249.549 219.731 267.796 205.534 269.975 201.633C266.399 204.228 230.2 228.571 212.548 240.418L217.294 217.105C219.167 207.902 222.748 203.201 229.605 199.166C245.739 189.671 272.992 193.622 284.863 188.052C281.385 211.943 272.23 243.304 252.167 251.679Z" fill="url(#paint11_linear_77_31)"/>
<g filter="url(#filter8_d_77_31)">
<path d="M148.688 119.938V156.625C147.188 158.333 144.896 160.167 141.812 162.125C138.771 164.083 134.875 165.771 130.125 167.188C125.375 168.562 119.708 169.25 113.125 169.25C107.167 169.25 101.75 168.292 96.875 166.375C92 164.417 87.8125 161.562 84.3125 157.812C80.8125 154.021 78.1042 149.396 76.1875 143.938C74.3125 138.479 73.375 132.229 73.375 125.188V119.812C73.375 112.771 74.3125 106.521 76.1875 101.062C78.0625 95.6042 80.7083 91 84.125 87.25C87.5417 83.4583 91.6042 80.5833 96.3125 78.625C101.021 76.6667 106.229 75.6875 111.938 75.6875C120.062 75.6875 126.708 77 131.875 79.625C137.042 82.2083 140.958 85.7917 143.625 90.375C146.333 94.9583 148 100.229 148.625 106.188H129C128.583 103.146 127.75 100.521 126.5 98.3125C125.292 96.1042 123.562 94.4167 121.312 93.25C119.062 92.0417 116.146 91.4375 112.562 91.4375C109.688 91.4375 107.083 92.0417 104.75 93.25C102.458 94.4167 100.521 96.1875 98.9375 98.5625C97.3542 100.938 96.1458 103.896 95.3125 107.438C94.4792 110.938 94.0625 115.021 94.0625 119.688V125.188C94.0625 129.854 94.4792 133.958 95.3125 137.5C96.1875 141.042 97.4583 144 99.125 146.375C100.792 148.708 102.896 150.479 105.438 151.688C108.021 152.896 111.021 153.5 114.438 153.5C117.104 153.5 119.354 153.292 121.188 152.875C123.021 152.417 124.521 151.854 125.688 151.188C126.854 150.479 127.729 149.833 128.312 149.25V134.125H112.125V119.938H148.688ZM191.438 168H171.438L171.562 152.25H191.438C195.979 152.25 199.812 151.208 202.938 149.125C206.062 147 208.438 143.875 210.062 139.75C211.688 135.583 212.5 130.521 212.5 124.562V120.375C212.5 115.875 212.042 111.917 211.125 108.5C210.208 105.042 208.854 102.146 207.062 99.8125C205.271 97.4792 203.042 95.7292 200.375 94.5625C197.75 93.3958 194.729 92.8125 191.312 92.8125H171.062V77H191.312C197.479 77 203.104 78.0417 208.188 80.125C213.312 82.2083 217.729 85.1875 221.438 89.0625C225.188 92.9375 228.083 97.5208 230.125 102.812C232.167 108.104 233.188 114 233.188 120.5V124.562C233.188 131.021 232.167 136.917 230.125 142.25C228.083 147.542 225.188 152.125 221.438 156C217.729 159.833 213.333 162.792 208.25 164.875C203.167 166.958 197.562 168 191.438 168ZM183 77V168H162.625V77H183Z" fill="white"/>
</g>
<defs>
<filter id="filter0_d_77_31" x="31" y="22" width="249" height="274" filterUnits="userSpaceOnUse" color-interpolation-filters="sRGB">
<feFlood flood-opacity="0" result="BackgroundImageFix"/>
<feColorMatrix in="SourceAlpha" type="matrix" values="0 0 0 0 0 0 0 0 0 0 0 0 0 0 0 0 0 0 127 0" result="hardAlpha"/>
<feOffset dx="6" dy="4"/>
<feGaussianBlur stdDeviation="2"/>
<feComposite in2="hardAlpha" operator="out"/>
<feColorMatrix type="matrix" values="0 0 0 0 0.219608 0 0 0 0 0.639216 0 0 0 0 0.647059 0 0 0 1 0"/>
<feBlend mode="normal" in2="BackgroundImageFix" result="effect1_dropShadow_77_31"/>
<feBlend mode="normal" in="SourceGraphic" in2="effect1_dropShadow_77_31" result="shape"/>
</filter>
<filter id="filter1_d_77_31" x="62" y="32" width="176" height="63" filterUnits="userSpaceOnUse" color-interpolation-filters="sRGB">
<feFlood flood-opacity="0" result="BackgroundImageFix"/>
<feColorMatrix in="SourceAlpha" type="matrix" values="0 0 0 0 0 0 0 0 0 0 0 0 0 0 0 0 0 0 127 0" result="hardAlpha"/>
<feOffset dy="4"/>
<feGaussianBlur stdDeviation="2"/>
<feComposite in2="hardAlpha" operator="out"/>
<feColorMatrix type="matrix" values="0 0 0 0 0.341176 0 0 0 0 0.8 0 0 0 0 0.6 0 0 0 0.06 0"/>
<feBlend mode="normal" in2="BackgroundImageFix" result="effect1_dropShadow_77_31"/>
<feBlend mode="normal" in="SourceGraphic" in2="effect1_dropShadow_77_31" result="shape"/>
</filter>
<filter id="filter2_d_77_31" x="111.949" y="180.371" width="81.1836" height="38.0195" filterUnits="userSpaceOnUse" color-interpolation-filters="sRGB">
<feFlood flood-opacity="0" result="BackgroundImageFix"/>
<feColorMatrix in="SourceAlpha" type="matrix" values="0 0 0 0 0 0 0 0 0 0 0 0 0 0 0 0 0 0 127 0" result="hardAlpha"/>
<feOffset dy="4"/>
<feGaussianBlur stdDeviation="2"/>
<feComposite in2="hardAlpha" operator="out"/>
<feColorMatrix type="matrix" values="0 0 0 0 1 0 0 0 0 1 0 0 0 0 1 0 0 0 0.26 0"/>
<feBlend mode="normal" in2="BackgroundImageFix" result="effect1_dropShadow_77_31"/>
<feBlend mode="normal" in="SourceGraphic" in2="effect1_dropShadow_77_31" result="shape"/>
</filter>
<filter id="filter3_d_77_31" x="92.7354" y="54.5" width="30" height="30" filterUnits="userSpaceOnUse" color-interpolation-filters="sRGB">
<feFlood flood-opacity="0" result="BackgroundImageFix"/>
<feColorMatrix in="SourceAlpha" type="matrix" values="0 0 0 0 0 0 0 0 0 0 0 0 0 0 0 0 0 0 127 0" result="hardAlpha"/>
<feOffset dx="1" dy="3"/>
<feGaussianBlur stdDeviation="2"/>
<feComposite in2="hardAlpha" operator="out"/>
<feColorMatrix type="matrix" values="0 0 0 0 0.341176 0 0 0 0 0.8 0 0 0 0 0.6 0 0 0 0.24 0"/>
<feBlend mode="normal" in2="BackgroundImageFix" result="effect1_dropShadow_77_31"/>
<feBlend mode="normal" in="SourceGraphic" in2="effect1_dropShadow_77_31" result="shape"/>
</filter>
<filter id="filter4_d_77_31" x="31" y="216" width="42" height="42" filterUnits="userSpaceOnUse" color-interpolation-filters="sRGB">
<feFlood flood-opacity="0" result="BackgroundImageFix"/>
<feColorMatrix in="SourceAlpha" type="matrix" values="0 0 0 0 0 0 0 0 0 0 0 0 0 0 0 0 0 0 127 0" result="hardAlpha"/>
<feOffset dx="1" dy="3"/>
<feGaussianBlur stdDeviation="2"/>
<feComposite in2="hardAlpha" operator="out"/>
<feColorMatrix type="matrix" values="0 0 0 0 0.341176 0 0 0 0 0.8 0 0 0 0 0.6 0 0 0 0.24 0"/>
<feBlend mode="normal" in2="BackgroundImageFix" result="effect1_dropShadow_77_31"/>
<feBlend mode="normal" in="SourceGraphic" in2="effect1_dropShadow_77_31" result="shape"/>
</filter>
<filter id="filter5_d_77_31" x="110" y="223" width="30" height="30" filterUnits="userSpaceOnUse" color-interpolation-filters="sRGB">
<feFlood flood-opacity="0" result="BackgroundImageFix"/>
<feColorMatrix in="SourceAlpha" type="matrix" values="0 0 0 0 0 0 0 0 0 0 0 0 0 0 0 0 0 0 127 0" result="hardAlpha"/>
<feOffset dx="1" dy="-3"/>
<feGaussianBlur stdDeviation="2"/>
<feComposite in2="hardAlpha" operator="out"/>
<feColorMatrix type="matrix" values="0 0 0 0 0.341176 0 0 0 0 0.8 0 0 0 0 0.6 0 0 0 0.24 0"/>
<feBlend mode="normal" in2="BackgroundImageFix" result="effect1_dropShadow_77_31"/>
<feBlend mode="normal" in="SourceGraphic" in2="effect1_dropShadow_77_31" result="shape"/>
</filter>
<filter id="filter6_d_77_31" x="253" y="134" width="37" height="37" filterUnits="userSpaceOnUse" color-interpolation-filters="sRGB">
<feFlood flood-opacity="0" result="BackgroundImageFix"/>
<feColorMatrix in="SourceAlpha" type="matrix" values="0 0 0 0 0 0 0 0 0 0 0 0 0 0 0 0 0 0 127 0" result="hardAlpha"/>
<feOffset dx="1" dy="3"/>
<feGaussianBlur stdDeviation="2"/>
<feComposite in2="hardAlpha" operator="out"/>
<feColorMatrix type="matrix" values="0 0 0 0 0.341176 0 0 0 0 0.8 0 0 0 0 0.6 0 0 0 0.24 0"/>
<feBlend mode="normal" in2="BackgroundImageFix" result="effect1_dropShadow_77_31"/>
<feBlend mode="normal" in="SourceGraphic" in2="effect1_dropShadow_77_31" result="shape"/>
</filter>
<filter id="filter7_d_77_31" x="192" y="27" width="19" height="19" filterUnits="userSpaceOnUse" color-interpolation-filters="sRGB">
<feFlood flood-opacity="0" result="BackgroundImageFix"/>
<feColorMatrix in="SourceAlpha" type="matrix" values="0 0 0 0 0 0 0 0 0 0 0 0 0 0 0 0 0 0 127 0" result="hardAlpha"/>
<feOffset dx="1" dy="3"/>
<feGaussianBlur stdDeviation="2"/>
<feComposite in2="hardAlpha" operator="out"/>
<feColorMatrix type="matrix" values="0 0 0 0 0.341176 0 0 0 0 0.8 0 0 0 0 0.6 0 0 0 0.24 0"/>
<feBlend mode="normal" in2="BackgroundImageFix" result="effect1_dropShadow_77_31"/>
<feBlend mode="normal" in="SourceGraphic" in2="effect1_dropShadow_77_31" result="shape"/>
</filter>
<filter id="filter8_d_77_31" x="69.375" y="75.6875" width="167.812" height="101.562" filterUnits="userSpaceOnUse" color-interpolation-filters="sRGB">
<feFlood flood-opacity="0" result="BackgroundImageFix"/>
<feColorMatrix in="SourceAlpha" type="matrix" values="0 0 0 0 0 0 0 0 0 0 0 0 0 0 0 0 0 0 127 0" result="hardAlpha"/>
<feOffset dy="4"/>
<feGaussianBlur stdDeviation="2"/>
<feComposite in2="hardAlpha" operator="out"/>
<feColorMatrix type="matrix" values="0 0 0 0 0.211765 0 0 0 0 0.615686 0 0 0 0 0.631373 0 0 0 1 0"/>
<feBlend mode="normal" in2="BackgroundImageFix" result="effect1_dropShadow_77_31"/>
<feBlend mode="normal" in="SourceGraphic" in2="effect1_dropShadow_77_31" result="shape"/>
</filter>
<linearGradient id="paint0_linear_77_31" x1="18" y1="10.5" x2="287.5" y2="300" gradientUnits="userSpaceOnUse">
<stop stop-color="#80ED99"/>
<stop offset="1" stop-color="#38A3A5"/>
</linearGradient>
<linearGradient id="paint1_linear_77_31" x1="279" y1="282" x2="9.49999" y2="22" gradientUnits="userSpaceOnUse">
<stop stop-color="#016473"/>
<stop offset="1" stop-color="#092E3D"/>
</linearGradient>
<linearGradient id="paint2_linear_77_31" x1="107.5" y1="78" x2="89.5" y2="61.5" gradientUnits="userSpaceOnUse">
<stop stop-color="#10E8BE"/>
<stop offset="1" stop-color="#08A471"/>
</linearGradient>
<linearGradient id="paint3_linear_77_31" x1="87" y1="207.5" x2="36.5" y2="245" gradientUnits="userSpaceOnUse">
<stop stop-color="#10E8BE"/>
<stop offset="1" stop-color="#08A471"/>
</linearGradient>
<linearGradient id="paint4_linear_77_31" x1="135" y1="228.5" x2="115.986" y2="253" gradientUnits="userSpaceOnUse">
<stop stop-color="#10E8BE"/>
<stop offset="1" stop-color="#08A471"/>
</linearGradient>
<linearGradient id="paint5_linear_77_31" x1="298.163" y1="172.568" x2="274.436" y2="150.818" gradientUnits="userSpaceOnUse">
<stop stop-color="#10E8BE"/>
<stop offset="1" stop-color="#08A471"/>
</linearGradient>
<linearGradient id="paint6_linear_77_31" x1="210.993" y1="42.25" x2="201.993" y2="34" gradientUnits="userSpaceOnUse">
<stop stop-color="#10E8BE"/>
<stop offset="1" stop-color="#08A471"/>
</linearGradient>
<linearGradient id="paint7_linear_77_31" x1="25.9283" y1="151.763" x2="61.5111" y2="202.15" gradientUnits="userSpaceOnUse">
<stop stop-color="#00B368"/>
<stop offset="1" stop-color="#1CBDA1" stop-opacity="0.69"/>
</linearGradient>
<linearGradient id="paint8_linear_77_31" x1="274.079" y1="26.6765" x2="234.701" y2="74.1564" gradientUnits="userSpaceOnUse">
<stop stop-color="#00B368"/>
<stop offset="1" stop-color="#1CBDA1" stop-opacity="0.83"/>
</linearGradient>
<linearGradient id="paint9_linear_77_31" x1="49.5" y1="16" x2="49.5" y2="115" gradientUnits="userSpaceOnUse">
<stop stop-color="#00B368"/>
<stop offset="1" stop-color="#00B368" stop-opacity="0.12"/>
</linearGradient>
<linearGradient id="paint10_linear_77_31" x1="77.5106" y1="242.179" x2="98.9021" y2="267.053" gradientUnits="userSpaceOnUse">
<stop stop-color="#00B368"/>
<stop offset="1" stop-color="#00B368" stop-opacity="0.12"/>
</linearGradient>
<linearGradient id="paint11_linear_77_31" x1="255.409" y1="182.056" x2="240.748" y2="254.076" gradientUnits="userSpaceOnUse">
<stop stop-color="#00B368"/>
<stop offset="1" stop-color="#00B368"/>
</linearGradient>
</defs>
</svg>
